<?xml version="1.0" standalone="no"?>
<!DOCTYPE svg PUBLIC "-//W3C//DTD SVG 20010904//EN"
 "http://www.w3.org/TR/2001/REC-SVG-20010904/DTD/svg10.dtd">
<svg version="1.0" xmlns="http://www.w3.org/2000/svg"
 width="512.000000pt" height="512.000000pt" viewBox="0 0 512.000000 512.000000"
 preserveAspectRatio="xMidYMid meet">
<metadata>
Created by potrace 1.16, written by Peter Selinger 2001-2019
</metadata>
<g transform="translate(0.000000,512.000000) scale(0.100000,-0.100000)"
fill="#000000" stroke="none">
<path d="M2335 4994 c-569 -59 -1071 -290 -1474 -679 -384 -371 -626 -839
-718 -1390 -26 -157 -26 -573 0 -730 92 -551 334 -1020 718 -1390 370 -357
823 -581 1339 -662 163 -25 558 -25 719 0 544 86 1025 333 1396 718 357 370
580 821 662 1340 25 161 25 557 0 718 -155 984 -852 1758 -1807 2007 -192 50
-319 66 -565 69 -126 2 -248 1 -270 -1z m403 -884 c255 -72 454 -246 549 -480
56 -140 67 -328 28 -475 -57 -211 -215 -400 -420 -501 -137 -67 -193 -79 -375
-79 -177 0 -244 15 -380 86 -294 152 -468 481 -420 794 25 164 88 296 199 417
125 136 271 217 456 254 95 19 268 11 363 -16z m442 -1853 c253 -73 468 -227
606 -433 98 -147 144 -274 165 -456 14 -125 8 -198 -22 -239 -42 -59 -170
-104 -369 -130 -123 -16 -1622 -24 -1857 -10 -356 22 -504 73 -534 184 -16 59
-3 229 26 343 99 391 434 690 854 764 25 5 269 7 541 6 l495 -2 95 -27z"/>
</g>
</svg>
